<svg xmlns="http://www.w3.org/2000/svg" width="1600" height="1000" viewBox="0 0 1600 1000">
    <rect width="1600" height="1000" fill="#ffffff"/>
    <rect x="2" y="2" width="1596" height="996" fill="none" stroke="#000000" stroke-width="3"/>
    <rect x="10" y="10" width="1580" height="980" fill="none" stroke="#000000" stroke-width="1"/>
    <text x="80" y="90" font-family="'JetBrains Mono', 'Courier New', monospace" font-size="22" font-weight="bold" letter-spacing="6" fill="#000000">&#9679; TUNNELMIND</text>
    <text x="80" y="190" font-family="'ChicagoFLF', Geneva, 'Helvetica Neue', sans-serif" font-size="56" fill="#000000">Four lenses on one graph.</text>
    <text x="80" y="256" font-family="'ChicagoFLF', Geneva, 'Helvetica Neue', sans-serif" font-size="56" fill="#000000">The join is the moat.</text>

    <path d="M 620 380 C 830 380, 920 560, 1088 560" stroke="#000000" stroke-width="2.5" fill="none"/><path d="M 620 500 C 830 500, 920 560, 1088 560" stroke="#000000" stroke-width="2.5" fill="none"/><path d="M 620 620 C 830 620, 920 560, 1088 560" stroke="#000000" stroke-width="2.5" fill="none"/><path d="M 620 740 C 830 740, 920 560, 1088 560" stroke="#000000" stroke-width="2.5" fill="none"/>
    <g>
      <rect x="320" y="348" width="300" height="64" rx="0" fill="#ffffff" stroke="#000000" stroke-width="1.5"/>
      <circle cx="348" cy="380" r="7" fill="#000000"/>
      <text x="368" y="376" font-family="'JetBrains Mono', 'Courier New', monospace" font-size="20" fill="#000000">Scry</text>
      <text x="368" y="399" font-family="'JetBrains Mono', 'Courier New', monospace" font-size="14" fill="#000000">hostile network actors</text>
    </g><g>
      <rect x="320" y="468" width="300" height="64" rx="0" fill="#ffffff" stroke="#000000" stroke-width="1.5"/>
      <circle cx="348" cy="500" r="7" fill="#000000"/>
      <text x="368" y="496" font-family="'JetBrains Mono', 'Courier New', monospace" font-size="20" fill="#000000">Sigil</text>
      <text x="368" y="519" font-family="'JetBrains Mono', 'Courier New', monospace" font-size="14" fill="#000000">ad supply-graph trust</text>
    </g><g>
      <rect x="320" y="588" width="300" height="64" rx="0" fill="#ffffff" stroke="#000000" stroke-width="1.5"/>
      <circle cx="348" cy="620" r="7" fill="#000000"/>
      <text x="368" y="616" font-family="'JetBrains Mono', 'Courier New', monospace" font-size="20" fill="#000000">Tracker</text>
      <text x="368" y="639" font-family="'JetBrains Mono', 'Courier New', monospace" font-size="14" fill="#000000">who watches whom</text>
    </g><g>
      <rect x="320" y="708" width="300" height="64" rx="0" fill="#ffffff" stroke="#000000" stroke-width="1.5"/>
      <circle cx="348" cy="740" r="7" fill="#000000"/>
      <text x="368" y="736" font-family="'JetBrains Mono', 'Courier New', monospace" font-size="20" fill="#000000">GhostRoute</text>
      <text x="368" y="759" font-family="'JetBrains Mono', 'Courier New', monospace" font-size="14" fill="#000000">routing integrity</text>
    </g>

    <!-- corpus core -->
    <g>
      <circle cx="1180" cy="560" r="92" fill="#ffffff" stroke="#000000" stroke-width="2.5"/>
      <circle cx="1180" cy="560" r="58" fill="none" stroke="#000000" stroke-width="1.5"/>
      <text x="1180" y="554" text-anchor="middle" font-family="'JetBrains Mono', 'Courier New', monospace" font-size="16" fill="#000000">one</text>
      <text x="1180" y="582" text-anchor="middle" font-family="'ChicagoFLF', Geneva, 'Helvetica Neue', sans-serif" font-size="30" fill="#000000">corpus</text>
    </g>

    <!-- moat callout -->
    <rect x="950" y="710" width="460" height="120" rx="0" fill="#ffffff" stroke="#000000" stroke-width="1.5"/>
    <text x="1180" y="748" text-anchor="middle" font-family="'JetBrains Mono', 'Courier New', monospace" font-size="16" fill="#000000">the cross-lens join nobody else has</text>
    <text x="1180" y="782" text-anchor="middle" font-family="'ChicagoFLF', Geneva, 'Helvetica Neue', sans-serif" font-size="26" fill="#000000">agent-native, signed, witnessable</text>
    <text x="1180" y="812" text-anchor="middle" font-family="'JetBrains Mono', 'Courier New', monospace" font-size="14" fill="#000000">open protocol on the edge &#183; the data graph is paid</text>

    <text x="80" y="944" font-family="'JetBrains Mono', 'Courier New', monospace" font-size="20" letter-spacing="3" fill="#000000">tunnelmind.ai</text>
    <text x="1520" y="944" text-anchor="end" font-family="'JetBrains Mono', 'Courier New', monospace" font-size="18" fill="#000000">Trust attestation layer for the agentic internet</text>
  </svg>